#N canvas 525 26 915 768 10;
#X obj 118 246 bng 15 250 50 0 empty empty empty 17 7 0 10 -262144
-1 -1;
#X obj 97 315 * 0.1;
#X obj 118 332 - 1;
#X floatatom 118 354 5 0 0 0 - - -, f 5;
#X obj 106 293 random 20;
#X obj 246 281 f;
#X obj 246 303 mod 15;
#X floatatom 246 325 5 0 0 0 - - -, f 5;
#X obj 293 284 + 1;
#X obj 118 266 metro 300;
#X obj 571 246 f;
#X floatatom 623 334 5 0 0 0 - - -, f 5;
#X obj 618 249 + 1;
#X obj 479 231 metro 300;
#X text 661 312 Index for table;
#X text 323 259 retrieves incoming rgb values list;
#X obj 301 334 select 0 1 2 3 4 5 6 7 8 9 10 11 12 13 14;
#X obj 318 314 hradio 15 1 0 15 empty empty empty 0 -8 0 10 -262144
-1 -1 10;
#X obj 357 372 r g0;
#X obj 400 375 r b0;
#X obj 571 274 mod 15;
#X obj 317 396 f;
#X obj 357 394 f;
#X obj 400 397 f;
#X obj 380 444 f;
#X obj 422 442 f;
#X obj 463 445 f;
#X obj 425 492 f;
#X obj 465 490 f;
#X obj 508 493 f;
#X obj 477 540 f;
#X obj 517 538 f;
#X obj 560 541 f;
#X obj 524 587 f;
#X obj 564 585 f;
#X obj 598 591 f;
#X obj 380 422 r r1;
#X obj 420 420 r g1;
#X obj 463 423 r b1;
#X obj 425 470 r r2;
#X obj 465 467 r g2;
#X obj 508 471 r g3;
#X obj 477 518 r r3;
#X obj 517 516 r g3;
#X obj 559 519 r b3;
#X obj 524 565 r r4;
#X obj 564 563 r g4;
#X obj 603 565 r b4;
#X floatatom 353 619 5 0 0 0 - - -, f 5;
#X obj 475 208 loadbang;
#X obj 353 654 osc~;
#X obj 350 690 *~;
#X obj 348 726 dac~;
#X obj 302 367 r redone;
#X connect 0 0 9 0;
#X connect 1 0 2 0;
#X connect 2 0 3 0;
#X connect 4 0 1 0;
#X connect 5 0 6 0;
#X connect 5 0 8 0;
#X connect 6 0 7 0;
#X connect 8 0 5 1;
#X connect 9 0 4 0;
#X connect 9 0 5 0;
#X connect 10 0 12 0;
#X connect 10 0 20 0;
#X connect 12 0 10 1;
#X connect 13 0 10 0;
#X connect 16 0 21 0;
#X connect 16 1 22 0;
#X connect 16 2 23 0;
#X connect 16 3 24 0;
#X connect 16 4 25 0;
#X connect 16 5 26 0;
#X connect 16 6 27 0;
#X connect 16 7 28 0;
#X connect 16 8 29 0;
#X connect 16 9 30 0;
#X connect 16 10 31 0;
#X connect 16 11 32 0;
#X connect 16 12 33 0;
#X connect 16 13 34 0;
#X connect 16 14 35 0;
#X connect 17 0 16 0;
#X connect 18 0 22 0;
#X connect 19 0 23 0;
#X connect 20 0 11 0;
#X connect 20 0 17 0;
#X connect 21 0 48 0;
#X connect 22 0 48 0;
#X connect 23 0 48 0;
#X connect 24 0 48 0;
#X connect 25 0 48 0;
#X connect 26 0 48 0;
#X connect 27 0 48 0;
#X connect 28 0 48 0;
#X connect 29 0 48 0;
#X connect 30 0 48 0;
#X connect 31 0 48 0;
#X connect 32 0 48 0;
#X connect 33 0 48 0;
#X connect 34 0 48 0;
#X connect 35 0 48 0;
#X connect 36 0 24 0;
#X connect 37 0 25 0;
#X connect 38 0 26 0;
#X connect 39 0 27 0;
#X connect 40 0 28 0;
#X connect 41 0 29 0;
#X connect 42 0 30 0;
#X connect 43 0 31 0;
#X connect 44 0 32 0;
#X connect 45 0 33 0;
#X connect 46 0 34 0;
#X connect 47 0 35 0;
#X connect 48 0 50 0;
#X connect 49 0 13 0;
#X connect 50 0 51 0;
#X connect 51 0 52 0;
#X connect 51 0 52 1;
#X connect 53 0 21 0;
