#N canvas 492 243 450 300 10;
#X obj 166 156 dac~;
#X obj 208 44 r oscnum;
#X obj 168 107 osc~;
#X floatatom 220 82 5 0 0 0 - - -, f 5;
#X connect 1 0 2 0;
#X connect 1 0 3 0;
#X connect 2 0 0 0;
#X connect 2 0 0 1;
