#N canvas 485 179 450 300 10;
#X obj 29 151 osc~;
#X obj 27 214 dac~;
#X obj 28 42 r red;
#X obj 27 181 *~ 6.6;
#X obj 158 152 snapshot~;
#X floatatom 164 191 5 0 0 0 - - -, f 5;
#X obj 161 129 bng 15 250 50 0 empty empty empty 17 7 0 10 -262144
-1 -1;
#X floatatom 30 111 5 0 0 0 - - -, f 5;
#X obj 166 94 metro 50;
#X obj 169 62 tgl 15 0 empty empty empty 17 7 0 10 -262144 -1 -1 1
1;
#X obj 83 120 *~ 6;
#X obj 319 88 metro 500;
#X connect 0 0 3 0;
#X connect 0 0 4 0;
#X connect 3 0 1 0;
#X connect 3 0 1 1;
#X connect 4 0 5 0;
#X connect 6 0 4 0;
#X connect 7 0 10 0;
#X connect 8 0 6 0;
#X connect 9 0 8 0;
#X connect 10 0 0 0;
