#N canvas 281 212 1118 532 10;
#X obj 243 560 osc~;
#X obj 302 642 dac~;
#X obj 475 208 loadbang;
#X obj 534 321 f;
#X obj 585 323 + 1;
#X floatatom 593 349 5 0 0 0 - - -, f 5;
#X obj 114 437 f;
#X obj 168 420 r blueone;
#X obj 179 442 f;
#X obj 254 443 f;
#X obj 243 421 r greenone;
#X obj 469 290 metro 1200;
#X obj 330 608 *~;
#X msg 427 638 \$1 20;
#X obj 413 585 loadbang;
#X obj 426 674 line~;
#X msg 430 610 0.2;
#X obj 315 482 f;
#X obj 377 482 f;
#X obj 452 483 f;
#X obj 496 524 f;
#X obj 558 524 f;
#X obj 633 525 f;
#X obj 617 475 f;
#X obj 679 475 f;
#X obj 754 476 f;
#X obj 74 415 r redone;
#X obj 859 472 f;
#X obj 921 472 f;
#X obj 996 473 f;
#X obj 366 376 select 0 1 2 3 4 5 6 7 8 9 10 11 12 13 14;
#X obj 533 345 mod 15;
#X obj 297 461 r redtwo;
#X obj 366 460 r bluetwo;
#X obj 441 461 r greentwo;
#X obj 478 503 r redthree;
#X obj 547 502 r bluethree;
#X obj 622 502 r greenthree;
#X obj 599 454 r redfour;
#X obj 668 453 r bluefour;
#X obj 743 454 r greenfour;
#X obj 841 451 r redfive;
#X obj 910 450 r bluefive;
#X obj 985 451 r greenfive;
#X obj 102 581 osc~;
#X obj 151 585 osc~;
#X obj 193 585 osc~;
#X obj 564 231 r brightness;
#X obj 565 257 * 8;
#X obj 247 616 *~ 0.25;
#X obj 19 518 loadbang;
#X obj 29 560 metro 500;
#X obj 100 533 + 100;
#X obj 148 521 + 200;
#X obj 194 521 + 300;
#X connect 0 0 12 0;
#X connect 2 0 11 0;
#X connect 3 0 4 0;
#X connect 3 0 31 0;
#X connect 4 0 3 1;
#X connect 6 0 0 0;
#X connect 6 0 52 0;
#X connect 6 0 53 0;
#X connect 6 0 54 0;
#X connect 7 0 8 0;
#X connect 8 0 0 0;
#X connect 9 0 0 0;
#X connect 10 0 9 0;
#X connect 11 0 3 0;
#X connect 12 0 1 0;
#X connect 12 0 1 1;
#X connect 13 0 15 0;
#X connect 14 0 16 0;
#X connect 15 0 12 1;
#X connect 16 0 13 0;
#X connect 17 0 0 0;
#X connect 18 0 0 0;
#X connect 19 0 0 0;
#X connect 20 0 0 0;
#X connect 21 0 0 0;
#X connect 22 0 0 0;
#X connect 23 0 0 0;
#X connect 24 0 0 0;
#X connect 25 0 0 0;
#X connect 26 0 6 0;
#X connect 27 0 0 0;
#X connect 28 0 0 0;
#X connect 29 0 0 0;
#X connect 30 0 6 0;
#X connect 30 1 8 0;
#X connect 30 2 9 0;
#X connect 30 3 17 0;
#X connect 30 4 18 0;
#X connect 30 5 19 0;
#X connect 30 6 20 0;
#X connect 30 7 21 0;
#X connect 30 8 22 0;
#X connect 30 9 23 0;
#X connect 30 10 24 0;
#X connect 30 11 25 0;
#X connect 30 12 27 0;
#X connect 30 13 28 0;
#X connect 30 14 29 0;
#X connect 31 0 5 0;
#X connect 31 0 30 0;
#X connect 32 0 17 0;
#X connect 33 0 18 0;
#X connect 34 0 19 0;
#X connect 35 0 20 0;
#X connect 36 0 21 0;
#X connect 37 0 22 0;
#X connect 38 0 23 0;
#X connect 39 0 24 0;
#X connect 40 0 25 0;
#X connect 41 0 27 0;
#X connect 42 0 28 0;
#X connect 43 0 29 0;
#X connect 44 0 49 0;
#X connect 45 0 49 0;
#X connect 46 0 49 0;
#X connect 47 0 48 0;
#X connect 48 0 11 1;
#X connect 49 0 12 0;
#X connect 52 0 44 0;
#X connect 53 0 45 0;
#X connect 54 0 46 0;
