#N canvas 541 181 450 300 10;
#X obj 51 17 inlet~;
#X obj 58 280 outlet~;
#X obj 171 178 line~;
#X obj 60 176 cos~;
#X obj 171 154 pack 0 50;
#X floatatom 171 53 0 0 100 0 - - -;
#X obj 61 103 -~ 0.5;
#X obj 61 129 *~;
#X obj 171 79 / 10;
#X obj 171 103 moses 0;
#X msg 171 127 0;
#X obj 60 152 clip~ -0.5 0.5;
#X obj 171 203 +~ 1;
#X obj 60 200 +~ 1;
#X obj 59 251 hip~;
#X obj 60 224 *~ 0.5;
#X obj 61 79 phasor~;
#X obj 170 30 inlet;
#X connect 0 0 16 0;
#X connect 2 0 12 0;
#X connect 3 0 13 0;
#X connect 4 0 2 0;
#X connect 5 0 8 0;
#X connect 6 0 7 0;
#X connect 7 0 11 0;
#X connect 8 0 9 0;
#X connect 9 0 10 0;
#X connect 9 1 4 0;
#X connect 10 0 4 0;
#X connect 11 0 3 0;
#X connect 12 0 7 1;
#X connect 13 0 15 0;
#X connect 14 0 1 0;
#X connect 15 0 14 0;
#X connect 16 0 6 0;
#X connect 17 0 5 0;
